<svg xmlns="http://www.w3.org/2000/svg" xmlns:xlink="http://www.w3.org/1999/xlink" version="1.1" width="30px" height="30px" viewBox="0 0 256 256" xml:space="preserve">

<defs>
</defs>
<g style="stroke: none; stroke-width: 0; stroke-dasharray: none; stroke-linecap: butt; stroke-linejoin: miter; stroke-miterlimit: 10; fill: none; fill-rule: nonzero; opacity: 1;" transform="translate(1.4065934065934016 1.4065934065934016) scale(2.81 2.81)" >
	<path d="M 74.119 66.908 c -3.992 0 -7.239 -3.247 -7.239 -7.239 s 3.247 -7.239 7.239 -7.239 s 7.239 3.247 7.239 7.239 S 78.111 66.908 74.119 66.908 z M 74.119 54.43 c -2.889 0 -5.239 2.351 -5.239 5.239 s 2.351 5.239 5.239 5.239 s 5.239 -2.351 5.239 -5.239 S 77.008 54.43 74.119 54.43 z" style="stroke: none; stroke-width: 1; stroke-dasharray: none; stroke-linecap: butt; stroke-linejoin: miter; stroke-miterlimit: 10; fill: rgb(0,0,0); fill-rule: nonzero; opacity: 1;" transform=" matrix(1 0 0 1 0 0) " stroke-linecap="round" />
	<path d="M 19.887 66.908 c -3.992 0 -7.24 -3.247 -7.24 -7.239 s 3.248 -7.239 7.24 -7.239 s 7.24 3.247 7.24 7.239 S 23.879 66.908 19.887 66.908 z M 19.887 54.43 c -2.889 0 -5.24 2.351 -5.24 5.239 s 2.351 5.239 5.24 5.239 s 5.24 -2.351 5.24 -5.239 S 22.776 54.43 19.887 54.43 z" style="stroke: none; stroke-width: 1; stroke-dasharray: none; stroke-linecap: butt; stroke-linejoin: miter; stroke-miterlimit: 10; fill: rgb(0,0,0); fill-rule: nonzero; opacity: 1;" transform=" matrix(1 0 0 1 0 0) " stroke-linecap="round" />
	<path d="M 85.631 60.692 l -5.284 -0.023 c -0.552 -0.007 -0.994 -0.459 -0.988 -1.012 c 0.007 -0.548 0.453 -0.988 1 -0.988 c 0.004 0 0.008 0 0.012 0 l 5.261 0.023 c 1.307 0 2.369 -1.063 2.369 -2.368 V 45.037 c 0 -8.282 -3.217 -19.946 -10.369 -19.946 H 61.447 v 19.377 c 0 0.552 -0.447 1 -1 1 H 3.806 C 2.81 45.468 2 46.278 2 47.274 v 8.444 c 0 0.795 0.31 1.541 0.872 2.103 c 0.561 0.56 1.305 0.867 2.097 0.867 c 0.002 0 0.004 0 0.006 0 l 8.669 -0.02 c 0.001 0 0.002 0 0.002 0 c 0.551 0 0.999 0.446 1 0.998 s -0.445 1.001 -0.998 1.002 l -8.669 0.02 c -0.004 0 -0.008 0 -0.012 0 c -1.325 0 -2.571 -0.515 -3.509 -1.451 C 0.518 58.298 0 57.049 0 55.719 v -8.444 c 0 -2.099 1.707 -3.806 3.806 -3.806 h 55.642 V 24.091 c 0 -0.552 0.447 -1 1 -1 h 17.184 C 86.706 23.091 90 36.215 90 45.037 v 11.287 C 90 58.732 88.04 60.692 85.631 60.692 z" style="stroke: none; stroke-width: 1; stroke-dasharray: none; stroke-linecap: butt; stroke-linejoin: miter; stroke-miterlimit: 10; fill: rgb(0,0,0); fill-rule: nonzero; opacity: 1;" transform=" matrix(1 0 0 1 0 0) " stroke-linecap="round" />
	<path d="M 67.88 60.669 H 26.127 c -0.552 0 -1 -0.447 -1 -1 s 0.448 -1 1 -1 H 67.88 c 0.553 0 1 0.447 1 1 S 68.433 60.669 67.88 60.669 z" style="stroke: none; stroke-width: 1; stroke-dasharray: none; stroke-linecap: butt; stroke-linejoin: miter; stroke-miterlimit: 10; fill: rgb(0,0,0); fill-rule: nonzero; opacity: 1;" transform=" matrix(1 0 0 1 0 0) " stroke-linecap="round" />
	<path d="M 74.12 60.67 c -0.13 0 -0.261 -0.03 -0.38 -0.08 c -0.131 -0.05 -0.23 -0.12 -0.33 -0.21 c -0.19 -0.19 -0.29 -0.44 -0.29 -0.71 c 0 -0.271 0.109 -0.521 0.29 -0.71 c 0.37 -0.37 1.05 -0.37 1.42 0 c 0.04 0.05 0.08 0.1 0.12 0.149 c 0.04 0.061 0.069 0.12 0.09 0.181 c 0.029 0.06 0.05 0.12 0.06 0.18 c 0.01 0.07 0.021 0.13 0.021 0.2 c 0 0.27 -0.101 0.52 -0.29 0.71 c -0.101 0.09 -0.21 0.16 -0.33 0.21 S 74.25 60.67 74.12 60.67 z" style="stroke: none; stroke-width: 1; stroke-dasharray: none; stroke-linecap: butt; stroke-linejoin: miter; stroke-miterlimit: 10; fill: rgb(0,0,0); fill-rule: nonzero; opacity: 1;" transform=" matrix(1 0 0 1 0 0) " stroke-linecap="round" />
	<path d="M 19.89 60.67 c -0.27 0 -0.52 -0.11 -0.71 -0.3 c -0.19 -0.181 -0.29 -0.431 -0.29 -0.7 c 0 -0.13 0.02 -0.26 0.07 -0.38 c 0.06 -0.13 0.13 -0.24 0.22 -0.33 c 0.37 -0.37 1.04 -0.37 1.41 0 c 0.1 0.09 0.17 0.2 0.22 0.33 c 0.05 0.12 0.08 0.25 0.08 0.38 c 0 0.27 -0.11 0.52 -0.3 0.7 c -0.09 0.1 -0.2 0.17 -0.32 0.22 C 20.15 60.64 20.02 60.67 19.89 60.67 z" style="stroke: none; stroke-width: 1; stroke-dasharray: none; stroke-linecap: butt; stroke-linejoin: miter; stroke-miterlimit: 10; fill: rgb(0,0,0); fill-rule: nonzero; opacity: 1;" transform=" matrix(1 0 0 1 0 0) " stroke-linecap="round" />
	<path d="M 89 45.468 H 70.173 c -0.553 0 -1 -0.448 -1 -1 V 24.091 c 0 -0.552 0.447 -1 1 -1 s 1 0.448 1 1 v 19.377 H 89 c 0.553 0 1 0.448 1 1 S 89.553 45.468 89 45.468 z" style="stroke: none; stroke-width: 1; stroke-dasharray: none; stroke-linecap: butt; stroke-linejoin: miter; stroke-miterlimit: 10; fill: rgb(0,0,0); fill-rule: nonzero; opacity: 1;" transform=" matrix(1 0 0 1 0 0) " stroke-linecap="round" />
</g>
</svg>